<?xml version="1.0" encoding="UTF-8" standalone="no"?>
<!DOCTYPE svg PUBLIC "-//W3C//DTD SVG 1.1//EN" "http://www.w3.org/Graphics/SVG/1.1/DTD/svg11.dtd">
<svg width="100%" height="100%" viewBox="0 0 8367 1717" version="1.1" xmlns="http://www.w3.org/2000/svg" xmlns:xlink="http://www.w3.org/1999/xlink" xml:space="preserve" xmlns:serif="http://www.serif.com/" style="fill-rule:evenodd;clip-rule:evenodd;stroke-linejoin:round;stroke-miterlimit:2;">
    <g transform="matrix(1,0,0,1,-274.896,-5191.93)">
        <g>
            <g transform="matrix(4.2462,0,0,4.2462,2493.26,6535.34)">
                <text x="0px" y="0px" style="font-family:'FredokaOne-Regular', 'Fredoka One';font-size:300px;">sel<tspan x="407.7px " y="0px ">f</tspan></text>
            </g>
            <g transform="matrix(4.56882e-16,-7.46144,10.9129,6.68222e-16,-430.966,7621.57)">
                <path d="M232.166,566.92C232.166,571.401 236.865,575.319 242.228,575.319L268.397,575.319C273.765,575.319 278.46,571.397 278.46,566.92C278.46,548.998 294.753,540.96 315.553,540.96C320.921,540.96 325.616,537.038 325.616,532.561L325.623,210.319C325.623,210.319 313.425,207.123 300.081,203.626C296.164,202.6 293.445,199.043 293.481,194.994C293.518,190.944 296.301,187.437 300.236,186.482C313.519,183.257 325.623,180.319 325.623,180.319L325.625,108.081C325.625,103.601 320.926,99.683 315.562,99.683C294.763,99.683 279.133,92.201 278.465,73.721C278.465,69.24 273.765,65.322 268.402,65.322L242.228,65.319C236.86,65.319 232.166,69.24 232.166,73.717C232.166,81.557 224.308,81.199 215.584,81.199C206.86,81.199 214.385,80.562 205.661,80.562C196.937,80.562 190.033,81.479 190.033,73.08C190.033,68.599 185.334,64.681 179.97,64.681L153.801,64.681C148.433,64.681 143.739,68.603 143.739,73.08C143.739,91.002 126.487,99.042 105.688,99.042C100.319,99.042 95.625,102.964 95.625,107.44L95.625,179.681C95.625,179.681 111.816,183.701 127.747,187.655C131.133,188.496 133.501,191.55 133.47,195.038C133.44,198.527 131.021,201.54 127.62,202.322C111.731,205.977 95.625,209.681 95.625,209.681L95.625,531.92C95.625,536.401 100.324,540.319 105.688,540.319C126.487,540.319 143.075,547.799 143.743,566.279C143.743,570.76 148.442,574.678 153.806,574.678L179.965,574.681C185.333,574.681 190.028,570.76 190.028,566.283C190.028,558.443 196.928,558.802 205.652,558.802C214.375,558.802 206.851,559.44 215.574,559.44C224.303,559.44 232.165,558.521 232.165,566.92L232.166,566.92ZM295.666,276.71C295.666,267.465 288.171,259.969 278.925,259.969L142.325,259.969C133.079,259.969 125.584,267.465 125.584,276.71L125.584,483.259C125.584,492.505 133.079,500 142.325,500L278.925,500C288.171,500 295.666,492.505 295.666,483.259L295.666,276.71Z"/>
            </g>
            <g transform="matrix(0.759834,0,0,0.759834,5951.36,5480.18)">
                <text x="0px" y="1299.29px" style="font-family:'FredokaOne-Regular', 'Fredoka One';font-size:1676.5px;">hos<tspan x="2813.16px " y="1299.29px ">t</tspan></text>
            </g>
        </g>
    </g>
</svg>
