<svg id="visual" viewBox="0 0 900 600" width="900" height="600" xmlns="http://www.w3.org/2000/svg" xmlns:xlink="http://www.w3.org/1999/xlink" version="1.1"><rect x="0" y="0" width="900" height="600" fill="#F4F3EE"></rect><defs><linearGradient id="grad1_0" x1="33.3%" y1="100%" x2="100%" y2="0%"><stop offset="20%" stop-color="#e0afa0" stop-opacity="1"></stop><stop offset="80%" stop-color="#e0afa0" stop-opacity="1"></stop></linearGradient></defs><defs><linearGradient id="grad1_1" x1="33.3%" y1="100%" x2="100%" y2="0%"><stop offset="20%" stop-color="#e0afa0" stop-opacity="1"></stop><stop offset="80%" stop-color="#f4f3ee" stop-opacity="1"></stop></linearGradient></defs><defs><linearGradient id="grad2_0" x1="0%" y1="100%" x2="66.7%" y2="0%"><stop offset="20%" stop-color="#e0afa0" stop-opacity="1"></stop><stop offset="80%" stop-color="#e0afa0" stop-opacity="1"></stop></linearGradient></defs><defs><linearGradient id="grad2_1" x1="0%" y1="100%" x2="66.7%" y2="0%"><stop offset="20%" stop-color="#f4f3ee" stop-opacity="1"></stop><stop offset="80%" stop-color="#e0afa0" stop-opacity="1"></stop></linearGradient></defs><g transform="translate(900, 600)"><path d="M-513.8 0C-520 -36.7 -526.3 -73.4 -503.9 -100.2C-481.6 -127.1 -430.6 -144.1 -409.3 -169.5C-388 -195 -396.3 -228.8 -391.6 -261.7C-386.9 -294.5 -369.1 -326.3 -342.2 -342.2C-315.4 -358.1 -279.6 -358.1 -255.6 -382.5C-231.6 -406.8 -219.4 -455.6 -192.1 -463.8C-164.8 -472 -122.3 -439.8 -87.8 -441.4C-53.2 -442.9 -26.6 -478.4 0 -513.8L0 0Z" fill="#e6d3c1"></path><path d="M-256.9 0C-260 -18.3 -263.1 -36.7 -252 -50.1C-240.8 -63.5 -215.3 -72 -204.6 -84.8C-194 -97.5 -198.2 -114.4 -195.8 -130.8C-193.4 -147.3 -184.5 -163.2 -171.1 -171.1C-157.7 -179.1 -139.8 -179.1 -127.8 -191.2C-115.8 -203.4 -109.7 -227.8 -96.1 -231.9C-82.4 -236 -61.2 -219.9 -43.9 -220.7C-26.6 -221.5 -13.3 -239.2 0 -256.9L0 0Z" fill="#e0afa0"></path></g><g transform="translate(0, 0)"><path d="M513.8 0C516.5 34.9 519.2 69.9 503.9 100.2C488.6 130.6 455.3 156.4 425.9 176.4C396.6 196.5 371.2 210.8 363.4 242.8C355.5 274.8 365.3 324.6 347.2 347.2C329.1 369.8 283.3 365.4 252.8 378.3C222.3 391.3 207.2 421.7 184.1 444.4C161 467.1 129.9 482.1 97.9 492.4C65.9 502.6 33 508.2 0 513.8L0 0Z" fill="#e6d3c1"></path><path d="M256.9 0C258.3 17.5 259.6 34.9 252 50.1C244.3 65.3 227.6 78.2 213 88.2C198.3 98.2 185.6 105.4 181.7 121.4C177.8 137.4 182.6 162.3 173.6 173.6C164.6 184.9 141.6 182.7 126.4 189.2C111.1 195.6 103.6 210.8 92 222.2C80.5 233.5 65 241 49 246.2C33 251.3 16.5 254.1 0 256.9L0 0Z" fill="#e0afa0"></path></g></svg>