<?xml version="1.0" encoding="UTF-8" standalone="no"?>
<svg
   width="100%"
   height="100%"
   viewBox="0 0 5000 3334"
   version="1.1"
   xml:space="preserve"
   style="fill-rule:evenodd;clip-rule:evenodd;stroke-linejoin:round;stroke-miterlimit:2;"
   id="svg111"
   sodipodi:docname="blob-layered.svg"
   inkscape:version="1.1 (c68e22c387, 2021-05-23)"
   xmlns:inkscape="http://www.inkscape.org/namespaces/inkscape"
   xmlns:sodipodi="http://sodipodi.sourceforge.net/DTD/sodipodi-0.dtd"
   xmlns="http://www.w3.org/2000/svg"
   xmlns:svg="http://www.w3.org/2000/svg"><defs
   id="defs115"><filter
   inkscape:menu-tooltip="In and out glow with a possible offset and colorizable flood"
   inkscape:menu="Shadows and Glows"
   inkscape:label="Cutout Glow"
   style="color-interpolation-filters:sRGB;"
   id="filter547"
   x="-0.36"
   y="-0.36"
   width="1.72"
   height="1.72"><feOffset
     dy="0"
     dx="0"
     id="feOffset537" /><feGaussianBlur
     stdDeviation="3"
     result="blur"
     id="feGaussianBlur539" /><feFlood
     flood-color="rgb(0,0,0)"
     flood-opacity="0.33943661971830985"
     result="flood"
     id="feFlood541" /><feComposite
     in="flood"
     in2="SourceGraphic"
     operator="in"
     result="composite"
     id="feComposite543" /><feBlend
     in="blur"
     in2="composite"
     mode="normal"
     id="feBlend545"
     result="result1" /><feBlend
     mode="normal"
     in2="result1"
     id="feBlend1280"
     in="SourceGraphic"
     result="result2" /><feComposite
     in2="result2"
     id="feComposite1368"
     in="SourceGraphic"
     operator="xor"
     result="result3" /><feBlend
     mode="exclusion"
     in2="result3"
     id="feBlend1370"
     in="result2" /></filter>
            
            
        
            
            
        <filter
   style="color-interpolation-filters:sRGB"
   id="filter1406"
   inkscape:label="filter1"
   x="-0.18011296"
   y="-0.15142791"
   width="1.3602259"
   height="1.3028558"><feBlend
     mode="normal"
     in2="SourceGraphic"
     id="feBlend1408"
     result="result2" /><feGaussianBlur
     stdDeviation="5.6929953917050682"
     id="feGaussianBlur1532"
     result="result3" /><feFlood
     id="feFlood1538"
     flood-color="rgb(0,0,0)"
     flood-opacity="0.50704225352112675"
     result="result4" /><feBlend
     mode="overlay"
     in2="result3"
     id="feBlend1540"
     in="result4"
     result="result5" /><feComposite
     in2="SourceGraphic"
     id="feComposite1536"
     in="result5"
     operator="in"
     result="result7" /><feFlood
     id="feFlood1542"
     flood-color="rgb(255,255,255)"
     flood-opacity="0.29718309859154929"
     result="result6" /><feBlend
     mode="lighten"
     in2="result6"
     id="feBlend1546"
     in="result7"
     result="result8" /><feComposite
     in2="SourceGraphic"
     id="feComposite1548"
     operator="in"
     in="result8"
     result="result9" /><feComposite
     in2="result9"
     id="feComposite2035"
     in="result9" /></filter></defs><sodipodi:namedview
   id="namedview113"
   pagecolor="#ffffff"
   bordercolor="#666666"
   borderopacity="1.0"
   inkscape:pageshadow="2"
   inkscape:pageopacity="0.0"
   inkscape:pagecheckerboard="0"
   showgrid="false"
   inkscape:zoom="0.40912087"
   inkscape:cx="1676.7661"
   inkscape:cy="1680.4325"
   inkscape:window-width="3744"
   inkscape:window-height="2137"
   inkscape:window-x="88"
   inkscape:window-y="-8"
   inkscape:window-maximized="1"
   inkscape:current-layer="g109" />
    <g
   transform="matrix(5.55556,0,0,5.55556,0,0)"
   id="g109">
        <rect
   x="0"
   y="0"
   width="900"
   height="600"
   style="fill:rgb(244,243,238);"
   id="rect63" />
        <path
   d="m 386.2,600 c -6.2,-36.7 -12.5,-73.4 9.9,-100.2 22.3,-26.9 73.3,-43.9 94.6,-69.3 21.3,-25.5 13,-59.3 17.7,-92.2 4.7,-32.8 22.5,-64.6 49.4,-80.5 26.8,-15.9 62.6,-15.9 86.6,-40.3 24,-24.3 36.2,-73.1 63.5,-81.3 27.3,-8.2 69.8,24 104.3,22.4 34.6,-1.5 61.2,-37 87.8,-72.4 V 600 Z"
   style="fill:#e6d3c1;fill-rule:nonzero;filter:url(#filter1406)"
   id="path65" /><path
   d="m 643.1,600 c -3.1,-18.3 -6.2,-36.7 4.9,-50.1 11.2,-13.4 36.7,-21.9 47.4,-34.7 10.6,-12.7 6.4,-29.6 8.8,-46 2.4,-16.5 11.3,-32.4 24.7,-40.3 13.4,-8 31.3,-8 43.3,-20.1 12,-12.2 18.1,-36.6 31.7,-40.7 13.7,-4.1 34.9,12 52.2,11.2 17.3,-0.8 30.6,-18.5 43.9,-36.2 V 600 Z"
   style="fill:#e0afa0;fill-rule:nonzero;filter:url(#filter1406)"
   id="path67" />
        <path
   d="m 513.8,0 c 2.7,34.9 5.4,69.9 -9.9,100.2 -15.3,30.4 -48.6,56.2 -78,76.2 -29.3,20.1 -54.7,34.4 -62.5,66.4 -7.9,32 1.9,81.8 -16.2,104.4 -18.1,22.6 -63.9,18.2 -94.4,31.1 -30.5,13 -45.6,43.4 -68.7,66.1 -23.1,22.7 -54.2,37.7 -86.2,48 C 65.9,502.6 33,508.2 0,513.8 V 0 Z"
   style="fill:#e6d3c1;fill-rule:nonzero;filter:url(#filter1406)"
   id="path71" /><path
   d="m 256.9,0 c 1.4,17.5 2.7,34.9 -4.9,50.1 -7.7,15.2 -24.4,28.1 -39,38.1 -14.7,10 -27.4,17.2 -31.3,33.2 -3.9,16 0.9,40.9 -8.1,52.2 -9,11.3 -32,9.1 -47.2,15.6 -15.3,6.4 -22.8,21.6 -34.4,33 -11.5,11.3 -27,18.8 -43,24 -16,5.1 -32.5,7.9 -49,10.7 V 0 Z"
   style="fill:#e0afa0;fill-rule:nonzero;filter:url(#filter1406)"
   id="path73" />
        <g
   transform="matrix(-0.945581,0.325386,-0.325386,-0.945581,98.5729,307.424)"
   id="g85">
            <g
   transform="matrix(1,0,0,1,-900,-600)"
   id="g79">
                <circle
   cx="521.867"
   cy="342.239"
   style="fill:rgb(230, 211, 193);fill-rule:nonzero;filter:url(#filter1406)"
   id="circle77"
   r="71.867" />
            </g>
            <g
   transform="matrix(1,0,0,1,-900,-600)"
   id="g83"
   style="filter:url(#filter1406)">
                <path
   d="M591.363,323.877C592.91,329.737 593.734,335.893 593.734,342.239C593.734,381.904 561.532,414.106 521.867,414.106C520.527,414.106 519.194,414.069 517.875,413.997C518.497,406.015 518.01,397.543 519.231,389.2C521.631,372.7 530.531,356.8 543.931,348.9C557.331,340.9 575.231,340.9 587.231,328.8C588.688,327.319 590.058,325.658 591.363,323.877Z"
   style="fill:rgb(224,175,160);fill-rule:nonzero;"
   id="path81" />
            </g>
        </g>
        <g
   transform="matrix(0.523596,-0.25632,0.25632,0.523596,295.23,190.781)"
   id="g95">
            <g
   transform="matrix(1,0,0,1,-900,-600)"
   id="g89">
                <circle
   cx="752.212"
   cy="437.788"
   r="62.212"
   style="fill:rgb(230, 211, 193);fill-rule:nonzero;filter:url(#filter1406)"
   id="circle87" />
            </g>
            <g
   transform="matrix(1,0,0,1,-900,-600)"
   id="g93">
                <path
   d="M786.989,386.21C803.538,397.398 814.423,416.332 814.423,437.788C814.423,472.124 786.547,500 752.212,500C732.493,500 714.904,490.806 703.501,476.472C703.636,474.046 703.846,471.617 704.2,469.2C706.6,452.7 715.5,436.8 728.9,428.9C742.3,420.9 760.2,420.9 772.2,408.8C778.004,402.899 782.428,394.143 786.989,386.21Z"
   style="fill:rgb(224, 175, 160);fill-rule:nonzero;filter:url(#filter1406)"
   id="path91" />
            </g>
        </g>
        <g
   transform="translate(151.99837,-29.119909)"
   id="g99"
   style="filter:url(#filter1406)">
            <circle
   cx="352.401"
   cy="112.401"
   r="22.400999"
   style="fill:#e6d3c1;fill-rule:nonzero"
   id="circle97" />
        </g>
        <g
   transform="matrix(1,0,0,1,163.53,-22.9407)"
   id="g103"
   style="filter:url(#filter1406)">
            <circle
   cx="286.47"
   cy="266.47"
   r="36.47"
   style="fill:rgb(230,211,193);fill-rule:nonzero;"
   id="circle101" />
        </g>
        <g
   transform="matrix(1,0,0,1,-65.5366,-135.656)"
   id="g107"
   style="filter:url(#filter547)">
            <circle
   cx="785.537"
   cy="460"
   r="10"
   style="fill:rgb(224,175,160);fill-rule:nonzero;"
   id="circle105" />
        </g>
    </g>
</svg>
