<?xml version="1.0" encoding="UTF-8" standalone="no"?>
<!DOCTYPE svg PUBLIC "-//W3C//DTD SVG 1.1//EN" "http://www.w3.org/Graphics/SVG/1.1/DTD/svg11.dtd">
<svg width="100%" height="100%" viewBox="0 0 6525 1656" version="1.1" xmlns="http://www.w3.org/2000/svg" xmlns:xlink="http://www.w3.org/1999/xlink" xml:space="preserve" xmlns:serif="http://www.serif.com/" style="fill-rule:evenodd;clip-rule:evenodd;stroke-linejoin:round;stroke-miterlimit:2;" fill="currentColor">
    <g transform="matrix(1,0,0,1,-1750,-4972.46)">
        <g transform="matrix(5.58832,0,0,5.58832,-10965.5,-1394.41)">
            <g transform="matrix(1,0,0,1,0.148819,-3.9)">
                <text x="2267.72px" y="1417.32px" style="font-family:'FredokaOne-Regular', 'Fredoka One';font-size:300px;">se</text>
            </g>
            <g id="noun-ticket-1008102.svg" transform="matrix(2.56822e-17,0.423094,-0.371204,2.22192e-17,2586.61,1287.4)">
                <g transform="matrix(1,0,0,1,-350,-350)">
                    <g>
                        <g transform="matrix(1,0,0,0.720918,0,87.1723)">
                            <path d="M540,310.495L540,120.405L240,120.4C240,120.4 236.183,132.559 232.328,144.837C230.994,149.088 227.95,151.814 224.607,151.751C221.265,151.688 218.276,148.849 217.025,144.549C213.482,132.369 210,120.399 210,120.399L137.763,120.398C133.282,120.398 129.364,124.32 129.364,128.796C129.364,146.155 121.882,159.2 103.402,159.758C98.922,159.758 95.004,163.68 95.004,168.156L95,190C95,194.481 98.922,198.398 103.398,198.398C111.238,198.398 110.88,204.956 110.88,212.237L110.88,221.007C110.88,228.287 111.16,233.562 102.761,233.562C98.281,233.562 94.363,237.484 94.363,241.96L94.363,263.8C94.363,268.281 98.285,272.199 102.761,272.199C120.683,272.199 128.723,286.596 128.723,303.955C128.723,308.436 132.645,312.354 137.122,312.354L209.363,312.354C209.363,312.354 213.63,298.007 217.697,284.334C218.875,280.372 221.677,277.808 224.766,277.864C227.855,277.92 230.608,280.585 231.711,284.588C235.458,298.184 239.363,312.354 239.363,312.354L540,310.495Z" style="fill-rule:nonzero;"/>
                        </g>
                        <g transform="matrix(4.75232e-14,-776.113,593.595,3.63472e-14,652.372,342.147)">
                            <path d="M0.04,-0.211L0.215,-0.223C0.215,-0.199 0.217,-0.184 0.221,-0.178C0.225,-0.171 0.234,-0.168 0.248,-0.168C0.261,-0.168 0.27,-0.168 0.275,-0.167C0.28,-0.166 0.285,-0.163 0.292,-0.158C0.305,-0.149 0.312,-0.126 0.312,-0.087C0.312,-0.045 0.305,-0.019 0.292,-0.01C0.275,0.002 0.233,0.004 0.168,-0.004C0.117,-0.011 0.083,-0.028 0.068,-0.055C0.049,-0.088 0.04,-0.14 0.04,-0.211Z" style="fill-rule:nonzero;"/>
                        </g>
                    </g>
                </g>
            </g>
            <g transform="matrix(1,0,0,1,2674.31,1417.32)">
                <text x="0px" y="0px" style="font-family:'FredokaOne-Regular', 'Fredoka One';font-size:300px;">fhos<tspan x="638.4px " y="0px ">t</tspan></text>
            </g>
        </g>
    </g>
</svg>
