<?xml version="1.0" encoding="UTF-8" standalone="no"?>
<!DOCTYPE svg PUBLIC "-//W3C//DTD SVG 1.1//EN" "http://www.w3.org/Graphics/SVG/1.1/DTD/svg11.dtd">
<svg width="100%" height="100%" viewBox="0 0 5945 1450" version="1.1" xmlns="http://www.w3.org/2000/svg" xmlns:xlink="http://www.w3.org/1999/xlink" xml:space="preserve" xmlns:serif="http://www.serif.com/" style="fill-rule:evenodd;clip-rule:evenodd;stroke-linejoin:round;stroke-miterlimit:2;">
    <g transform="matrix(1,0,0,1,-1950,-5425)">
        <g>
            <g transform="matrix(4.2462,0,0,4.2462,2899.82,6685.34)">
                <g transform="matrix(300,0,0,300,0,0)">
                    <path d="M0.044,-0.047C0.031,-0.055 0.025,-0.068 0.025,-0.085C0.025,-0.102 0.038,-0.129 0.063,-0.164C0.07,-0.175 0.082,-0.181 0.099,-0.181C0.115,-0.181 0.137,-0.173 0.165,-0.157C0.193,-0.14 0.218,-0.132 0.241,-0.132C0.282,-0.132 0.302,-0.14 0.302,-0.156C0.302,-0.169 0.28,-0.178 0.235,-0.184C0.193,-0.19 0.151,-0.206 0.11,-0.231C0.091,-0.243 0.075,-0.262 0.062,-0.288C0.049,-0.313 0.043,-0.344 0.043,-0.379C0.043,-0.484 0.115,-0.537 0.26,-0.537C0.307,-0.537 0.356,-0.526 0.406,-0.503C0.429,-0.492 0.441,-0.479 0.441,-0.463C0.441,-0.447 0.434,-0.427 0.419,-0.404C0.404,-0.381 0.389,-0.369 0.374,-0.369C0.366,-0.369 0.351,-0.374 0.33,-0.384C0.308,-0.394 0.284,-0.399 0.259,-0.399C0.22,-0.399 0.2,-0.392 0.2,-0.377C0.2,-0.357 0.223,-0.344 0.268,-0.338C0.312,-0.333 0.355,-0.321 0.396,-0.3C0.415,-0.291 0.432,-0.275 0.445,-0.252C0.458,-0.229 0.464,-0.2 0.464,-0.165C0.464,-0.13 0.458,-0.101 0.445,-0.077C0.432,-0.052 0.413,-0.034 0.39,-0.022C0.347,-0.001 0.294,0.009 0.23,0.009C0.165,0.009 0.103,-0.01 0.044,-0.047Z" style="fill-rule:nonzero;"/>
                </g>
                <g transform="matrix(300,0,0,300,146.7,0)">
                    <path d="M0.548,-0.327C0.548,-0.285 0.538,-0.255 0.518,-0.235C0.497,-0.216 0.475,-0.206 0.45,-0.206L0.213,-0.206C0.213,-0.187 0.224,-0.172 0.246,-0.159C0.268,-0.146 0.29,-0.14 0.312,-0.14C0.351,-0.14 0.381,-0.144 0.403,-0.152L0.414,-0.156C0.43,-0.163 0.443,-0.167 0.454,-0.167C0.475,-0.167 0.494,-0.152 0.509,-0.122C0.518,-0.104 0.522,-0.089 0.522,-0.076C0.522,-0.017 0.451,0.013 0.309,0.013C0.26,0.013 0.216,0.004 0.178,-0.013C0.139,-0.029 0.109,-0.052 0.088,-0.08C0.046,-0.134 0.025,-0.194 0.025,-0.261C0.025,-0.345 0.052,-0.412 0.107,-0.463C0.161,-0.513 0.229,-0.538 0.31,-0.538C0.403,-0.538 0.471,-0.505 0.514,-0.44C0.537,-0.405 0.548,-0.368 0.548,-0.327ZM0.337,-0.297C0.362,-0.297 0.375,-0.308 0.375,-0.329C0.375,-0.344 0.369,-0.357 0.358,-0.366C0.346,-0.375 0.329,-0.38 0.308,-0.38C0.286,-0.38 0.264,-0.371 0.243,-0.354C0.222,-0.336 0.211,-0.317 0.211,-0.297L0.337,-0.297Z" style="fill-rule:nonzero;"/>
                </g>
                <g transform="matrix(300,0,0,300,318.6,0)">
                    <path d="M0.04,-0.687C0.04,-0.702 0.041,-0.714 0.042,-0.722C0.043,-0.729 0.045,-0.738 0.05,-0.748C0.059,-0.766 0.085,-0.775 0.128,-0.775C0.169,-0.775 0.194,-0.766 0.204,-0.748C0.209,-0.738 0.213,-0.729 0.214,-0.721C0.215,-0.713 0.215,-0.701 0.215,-0.686L0.215,-0.223C0.215,-0.199 0.217,-0.184 0.221,-0.178C0.225,-0.171 0.234,-0.168 0.248,-0.168C0.261,-0.168 0.27,-0.168 0.275,-0.167C0.28,-0.166 0.285,-0.163 0.292,-0.158C0.305,-0.149 0.312,-0.126 0.312,-0.087C0.312,-0.045 0.305,-0.019 0.292,-0.01C0.275,0.002 0.233,0.004 0.168,-0.004C0.117,-0.011 0.083,-0.028 0.068,-0.055C0.049,-0.088 0.04,-0.14 0.04,-0.211L0.04,-0.687Z" style="fill-rule:nonzero;"/>
                </g>
                <g transform="matrix(300,0,0,300,407.7,0)">
                    <path d="M0.348,-0.526C0.394,-0.526 0.421,-0.513 0.429,-0.488C0.433,-0.475 0.435,-0.459 0.435,-0.438C0.435,-0.417 0.433,-0.401 0.429,-0.389C0.424,-0.376 0.417,-0.367 0.408,-0.362C0.394,-0.354 0.374,-0.35 0.347,-0.35L0.283,-0.354L0.283,-0.086C0.283,-0.061 0.28,-0.042 0.274,-0.029C0.267,-0.017 0.258,-0.009 0.245,-0.005C0.232,-0.001 0.215,0.001 0.194,0.001C0.173,0.001 0.157,-0.001 0.145,-0.006C0.132,-0.01 0.123,-0.017 0.118,-0.027C0.113,-0.036 0.11,-0.045 0.109,-0.053C0.108,-0.061 0.107,-0.073 0.107,-0.088L0.107,-0.353L0.071,-0.353C0.054,-0.354 0.041,-0.358 0.034,-0.365C0.021,-0.378 0.015,-0.402 0.015,-0.438C0.015,-0.493 0.035,-0.52 0.074,-0.52L0.107,-0.52L0.107,-0.573C0.107,-0.624 0.125,-0.671 0.162,-0.713C0.199,-0.754 0.252,-0.775 0.321,-0.775C0.336,-0.775 0.348,-0.775 0.356,-0.774C0.363,-0.773 0.372,-0.769 0.382,-0.764C0.4,-0.755 0.409,-0.73 0.409,-0.687C0.409,-0.655 0.403,-0.632 0.392,-0.618C0.383,-0.607 0.368,-0.601 0.348,-0.6L0.32,-0.6C0.295,-0.6 0.283,-0.592 0.283,-0.575L0.283,-0.52L0.348,-0.526Z" style="fill-rule:nonzero;"/>
                </g>
                <g transform="matrix(300,0,0,300,542.7,0)">
                    <path d="M0.332,-0.525C0.399,-0.525 0.454,-0.5 0.499,-0.449C0.543,-0.398 0.565,-0.336 0.565,-0.263L0.565,-0.087C0.565,-0.072 0.565,-0.06 0.564,-0.053C0.563,-0.045 0.559,-0.036 0.554,-0.026C0.545,-0.009 0.52,-0 0.477,-0C0.436,-0 0.411,-0.009 0.401,-0.026C0.396,-0.036 0.393,-0.045 0.392,-0.053C0.391,-0.061 0.39,-0.073 0.39,-0.089L0.39,-0.264C0.39,-0.291 0.382,-0.313 0.367,-0.328C0.352,-0.343 0.332,-0.351 0.309,-0.351C0.285,-0.351 0.264,-0.344 0.246,-0.33C0.228,-0.315 0.218,-0.299 0.215,-0.281L0.215,-0.087C0.215,-0.072 0.215,-0.06 0.214,-0.053C0.213,-0.045 0.209,-0.036 0.204,-0.026C0.195,-0.009 0.17,-0 0.127,-0C0.085,-0 0.059,-0.009 0.05,-0.027C0.045,-0.037 0.043,-0.046 0.042,-0.053C0.041,-0.06 0.04,-0.072 0.04,-0.088L0.04,-0.686C0.04,-0.701 0.041,-0.713 0.042,-0.721C0.043,-0.728 0.045,-0.737 0.05,-0.746C0.059,-0.764 0.085,-0.773 0.128,-0.773C0.17,-0.773 0.195,-0.764 0.204,-0.746C0.209,-0.736 0.213,-0.727 0.214,-0.72C0.215,-0.712 0.215,-0.7 0.215,-0.685L0.215,-0.464C0.248,-0.505 0.287,-0.525 0.332,-0.525Z" style="fill-rule:nonzero;"/>
                </g>
                <g transform="matrix(300,0,0,300,724.2,0)">
                    <path d="M0.025,-0.263C0.025,-0.343 0.053,-0.409 0.109,-0.461C0.165,-0.513 0.229,-0.539 0.301,-0.539C0.373,-0.539 0.437,-0.513 0.492,-0.462C0.547,-0.41 0.575,-0.344 0.575,-0.264C0.575,-0.209 0.561,-0.16 0.532,-0.117C0.503,-0.074 0.469,-0.042 0.428,-0.021C0.387,-0.001 0.344,0.009 0.3,0.009C0.256,0.009 0.213,-0.002 0.172,-0.024C0.131,-0.045 0.096,-0.077 0.068,-0.119C0.039,-0.162 0.025,-0.21 0.025,-0.263ZM0.234,-0.192C0.255,-0.175 0.277,-0.167 0.299,-0.167C0.321,-0.167 0.343,-0.175 0.365,-0.192C0.387,-0.209 0.398,-0.233 0.398,-0.266C0.398,-0.299 0.388,-0.323 0.367,-0.339C0.346,-0.355 0.324,-0.363 0.3,-0.363C0.276,-0.363 0.254,-0.355 0.233,-0.338C0.212,-0.321 0.202,-0.297 0.202,-0.265C0.202,-0.232 0.213,-0.208 0.234,-0.192Z" style="fill-rule:nonzero;"/>
                </g>
                <g transform="matrix(300,0,0,300,904.2,0)">
                    <path d="M0.044,-0.047C0.031,-0.055 0.025,-0.068 0.025,-0.085C0.025,-0.102 0.038,-0.129 0.063,-0.164C0.07,-0.175 0.082,-0.181 0.099,-0.181C0.115,-0.181 0.137,-0.173 0.165,-0.157C0.193,-0.14 0.218,-0.132 0.241,-0.132C0.282,-0.132 0.302,-0.14 0.302,-0.156C0.302,-0.169 0.28,-0.178 0.235,-0.184C0.193,-0.19 0.151,-0.206 0.11,-0.231C0.091,-0.243 0.075,-0.262 0.062,-0.288C0.049,-0.313 0.043,-0.344 0.043,-0.379C0.043,-0.484 0.115,-0.537 0.26,-0.537C0.307,-0.537 0.356,-0.526 0.406,-0.503C0.429,-0.492 0.441,-0.479 0.441,-0.463C0.441,-0.447 0.434,-0.427 0.419,-0.404C0.404,-0.381 0.389,-0.369 0.374,-0.369C0.366,-0.369 0.351,-0.374 0.33,-0.384C0.308,-0.394 0.284,-0.399 0.259,-0.399C0.22,-0.399 0.2,-0.392 0.2,-0.377C0.2,-0.357 0.223,-0.344 0.268,-0.338C0.312,-0.333 0.355,-0.321 0.396,-0.3C0.415,-0.291 0.432,-0.275 0.445,-0.252C0.458,-0.229 0.464,-0.2 0.464,-0.165C0.464,-0.13 0.458,-0.101 0.445,-0.077C0.432,-0.052 0.413,-0.034 0.39,-0.022C0.347,-0.001 0.294,0.009 0.23,0.009C0.165,0.009 0.103,-0.01 0.044,-0.047Z" style="fill-rule:nonzero;"/>
                </g>
                <g transform="matrix(300,0,0,300,1046.1,0)">
                    <path d="M0.346,-0.35L0.281,-0.354L0.281,-0.216C0.281,-0.198 0.284,-0.185 0.29,-0.177C0.295,-0.169 0.306,-0.165 0.322,-0.165C0.337,-0.165 0.349,-0.165 0.358,-0.164C0.366,-0.163 0.375,-0.159 0.384,-0.154C0.399,-0.145 0.407,-0.123 0.407,-0.087C0.407,-0.045 0.398,-0.019 0.379,-0.01C0.369,-0.005 0.36,-0.003 0.353,-0.002C0.345,-0.001 0.334,-0 0.319,-0C0.25,-0 0.197,-0.016 0.161,-0.047C0.125,-0.078 0.107,-0.131 0.107,-0.206L0.107,-0.354C0.094,-0.352 0.081,-0.351 0.066,-0.351C0.051,-0.351 0.039,-0.357 0.029,-0.368C0.02,-0.379 0.015,-0.399 0.015,-0.426C0.015,-0.453 0.017,-0.473 0.02,-0.486C0.023,-0.498 0.028,-0.507 0.034,-0.512C0.045,-0.521 0.058,-0.525 0.074,-0.525L0.107,-0.521L0.107,-0.624C0.107,-0.639 0.108,-0.651 0.109,-0.658C0.11,-0.665 0.113,-0.673 0.118,-0.682C0.127,-0.699 0.152,-0.707 0.195,-0.707C0.24,-0.707 0.267,-0.695 0.276,-0.67C0.279,-0.659 0.281,-0.642 0.281,-0.619L0.281,-0.521C0.31,-0.524 0.333,-0.525 0.347,-0.525C0.363,-0.525 0.374,-0.525 0.382,-0.524C0.389,-0.523 0.398,-0.519 0.408,-0.514C0.425,-0.505 0.434,-0.48 0.434,-0.437C0.434,-0.395 0.425,-0.369 0.407,-0.36C0.397,-0.355 0.388,-0.353 0.381,-0.352C0.373,-0.35 0.361,-0.35 0.346,-0.35Z" style="fill-rule:nonzero;"/>
                </g>
            </g>
            <g transform="matrix(3.47826,2.27854e-32,-8.16416e-32,2.83959,1617.39,5241.33)">
                <path d="M232.166,566.92C232.166,571.401 236.865,575.319 242.228,575.319L268.397,575.319C273.765,575.319 278.46,571.397 278.46,566.92C278.46,548.998 294.753,540.96 315.553,540.96C320.921,540.96 325.616,537.038 325.616,532.561L325.623,210.319C325.623,210.319 313.425,207.123 300.081,203.626C296.164,202.6 293.445,199.043 293.481,194.994C293.518,190.944 296.301,187.437 300.236,186.482C313.519,183.257 325.623,180.319 325.623,180.319L325.625,108.081C325.625,103.601 320.926,99.683 315.562,99.683C294.763,99.683 279.133,92.201 278.465,73.721C278.465,69.24 273.765,65.322 268.402,65.322L242.228,65.319C236.86,65.319 232.166,69.24 232.166,73.717C232.166,81.557 224.308,81.199 215.584,81.199L205.864,81.199C197.141,81.199 190.033,81.479 190.033,73.08C190.033,68.599 185.334,64.681 179.97,64.681L153.801,64.681C148.433,64.681 143.739,68.603 143.739,73.08C143.739,91.002 126.487,99.042 105.688,99.042C100.319,99.042 95.625,102.964 95.625,107.44L95.625,179.681C95.625,179.681 107.812,183.883 123.743,187.837C127.129,188.678 129.496,191.732 129.466,195.221C129.436,198.71 127.017,201.722 123.616,202.504C107.726,206.159 95.625,209.681 95.625,209.681L95.625,531.92C95.625,536.401 100.324,540.319 105.688,540.319C126.487,540.319 143.075,547.799 143.743,566.279C143.743,570.76 148.442,574.678 153.806,574.678L179.965,574.681C185.333,574.681 190.028,570.76 190.028,566.283C190.028,558.443 196.928,558.802 205.652,558.802C214.375,558.802 206.662,558.908 215.386,558.908C224.115,558.908 232.165,558.521 232.165,566.92L232.166,566.92ZM295.666,276.71C295.666,267.465 288.171,259.969 278.925,259.969L142.325,259.969C133.079,259.969 125.584,267.465 125.584,276.71L125.584,483.259C125.584,492.505 133.079,500 142.325,500L278.925,500C288.171,500 295.666,492.505 295.666,483.259L295.666,276.71Z" style="fill:rgb(5,4,0);"/>
            </g>
        </g>
    </g>
</svg>
